<svg width="87" height="25" viewBox="0 0 87 25" fill="none" xmlns="http://www.w3.org/2000/svg">
<path d="M77.4991 24.132C74.8751 24.132 72.6564 23.652 70.8431 22.692C69.0511 21.732 67.6858 20.388 66.7471 18.66C65.8298 16.932 65.3711 14.916 65.3711 12.612C65.3711 10.2227 65.8724 8.15333 66.8751 6.404C67.8991 4.63333 69.3604 3.268 71.2591 2.308C73.1578 1.348 75.4404 0.867996 78.1071 0.867996C79.7498 0.867996 81.2004 1.06 82.4591 1.444C83.7391 1.828 84.8378 2.38266 85.7551 3.108L83.9311 7.62C83.2698 7.172 82.6404 6.83066 82.0431 6.596C81.4671 6.34 80.8698 6.15866 80.2511 6.052C79.6538 5.94533 78.9604 5.892 78.1711 5.892C75.9524 5.892 74.2884 6.468 73.1791 7.62C72.0911 8.75066 71.5471 10.4147 71.5471 12.612C71.5471 14.788 72.0484 16.4307 73.0511 17.54C74.0538 18.6493 75.6431 19.204 77.8191 19.204C78.4804 19.204 79.1951 19.14 79.9631 19.012C80.7524 18.884 81.5524 18.692 82.3631 18.436L81.3071 20.548V15.172H76.6351V11.076H86.1391V22.372C84.9231 22.948 83.5578 23.3853 82.0431 23.684C80.5498 23.9827 79.0351 24.132 77.4991 24.132Z" fill="#18A77C"/>
<path d="M39.6523 12.484C39.6523 10.1373 40.111 8.1 41.0283 6.372C41.9457 4.62266 43.2577 3.268 44.9643 2.308C46.671 1.348 48.687 0.867996 51.0123 0.867996C53.359 0.867996 55.3857 1.348 57.0923 2.308C58.799 3.268 60.111 4.62266 61.0283 6.372C61.967 8.1 62.4363 10.1373 62.4363 12.484C62.4363 14.8093 61.967 16.8467 61.0283 18.596C60.111 20.3453 58.799 21.7107 57.0923 22.692C55.3857 23.652 53.359 24.132 51.0123 24.132C48.687 24.132 46.671 23.652 44.9643 22.692C43.279 21.7107 41.967 20.3453 41.0283 18.596C40.111 16.8467 39.6523 14.8093 39.6523 12.484ZM45.8283 12.484C45.8283 14.596 46.255 16.2493 47.1083 17.444C47.9617 18.6173 49.263 19.204 51.0123 19.204C52.7617 19.204 54.0737 18.6173 54.9483 17.444C55.823 16.2493 56.2603 14.596 56.2603 12.484C56.2603 10.372 55.823 8.72933 54.9483 7.556C54.0737 6.38266 52.7617 5.796 51.0123 5.796C49.263 5.796 47.9617 6.38266 47.1083 7.556C46.255 8.708 45.8283 10.3507 45.8283 12.484Z" fill="#18A77C"/>
<path d="M23.0098 23.78V1.22H28.9298V18.884H38.5938V23.78H23.0098Z" fill="#18A77C"/>
<path d="M0.572266 23.78V1.22H11.5163C14.0336 1.22 15.9643 1.74267 17.3083 2.788C18.6736 3.83333 19.3563 5.252 19.3563 7.044C19.3563 8.36667 18.9616 9.49733 18.1723 10.436C17.4043 11.3747 16.3483 12.0147 15.0043 12.356V11.844C16.6043 12.1213 17.8309 12.74 18.6843 13.7C19.5589 14.6387 19.9963 15.8653 19.9963 17.38C19.9963 19.364 19.2709 20.932 17.8203 22.084C16.3696 23.2147 14.3856 23.78 11.8683 23.78H0.572266ZM6.23627 19.46H11.1003C12.2096 19.46 13.0309 19.2573 13.5643 18.852C14.1189 18.4467 14.3963 17.8173 14.3963 16.964C14.3963 16.0893 14.1189 15.46 13.5643 15.076C13.0309 14.692 12.2096 14.5 11.1003 14.5H6.23627V19.46ZM6.23627 10.18H10.4283C11.5589 10.18 12.3803 9.988 12.8923 9.604C13.4256 9.22 13.6923 8.63334 13.6923 7.844C13.6923 7.05467 13.4256 6.47867 12.8923 6.116C12.3803 5.732 11.5589 5.54 10.4283 5.54H6.23627V10.18Z" fill="#18A77C"/>
</svg>
