<svg width="17" height="20" viewBox="0 0 17 20" fill="none" xmlns="http://www.w3.org/2000/svg">
<path fill-rule="evenodd" clip-rule="evenodd" d="M9 1.19043C9 0.776216 8.66421 0.44043 8.25 0.44043C7.83579 0.44043 7.5 0.776216 7.5 1.19043V2.07715H4.90918V1.19043C4.90918 0.776216 4.57339 0.44043 4.15918 0.44043C3.74497 0.44043 3.40918 0.776216 3.40918 1.19043V2.07715H2.79545C1.12934 2.07715 0 3.64572 0 5.28169V7.73608V16.7362C0 18.3722 1.12934 19.9408 2.79545 19.9408H13.7045C15.3707 19.9408 16.5 18.3722 16.5 16.7362V7.73608V5.28169C16.5 3.64572 15.3707 2.07715 13.7045 2.07715H13.0908V1.19043C13.0908 0.776216 12.755 0.44043 12.3408 0.44043C11.9266 0.44043 11.5908 0.776216 11.5908 1.19043V2.07715H9V1.19043ZM11.5908 3.57715H9V4.46316C9 4.87737 8.66421 5.21316 8.25 5.21316C7.83579 5.21316 7.5 4.87737 7.5 4.46316V3.57715H4.90918V4.46316C4.90918 4.87737 4.57339 5.21316 4.15918 5.21316C3.74497 5.21316 3.40918 4.87737 3.40918 4.46316V3.57715H2.79545C2.20222 3.57715 1.5 4.20645 1.5 5.28169V6.98608H15V5.28169C15 4.20645 14.2978 3.57715 13.7045 3.57715H13.0908V4.46316C13.0908 4.87737 12.755 5.21316 12.3408 5.21316C11.9266 5.21316 11.5908 4.87737 11.5908 4.46316V3.57715ZM15 16.7362V8.48608H1.5V16.7362C1.5 17.8115 2.20222 18.4408 2.79545 18.4408H13.7045C14.2978 18.4408 15 17.8115 15 16.7362Z" fill="#18A77C"/>
<path fill-rule="evenodd" clip-rule="evenodd" d="M2.72711 11.8271C2.72711 11.4129 3.0629 11.0771 3.47711 11.0771H4.84075C5.25496 11.0771 5.59075 11.4129 5.59075 11.8271C5.59075 12.2414 5.25496 12.5771 4.84075 12.5771H3.47711C3.0629 12.5771 2.72711 12.2414 2.72711 11.8271Z" fill="#18A77C"/>
<path fill-rule="evenodd" clip-rule="evenodd" d="M6.81805 11.8271C6.81805 11.4129 7.15384 11.0771 7.56805 11.0771H8.93169C9.3459 11.0771 9.68169 11.4129 9.68169 11.8271C9.68169 12.2414 9.3459 12.5771 8.93169 12.5771H7.56805C7.15384 12.5771 6.81805 12.2414 6.81805 11.8271Z" fill="#18A77C"/>
<path fill-rule="evenodd" clip-rule="evenodd" d="M10.9091 11.8271C10.9091 11.4129 11.2448 11.0771 11.6591 11.0771H13.0227C13.4369 11.0771 13.7727 11.4129 13.7727 11.8271C13.7727 12.2414 13.4369 12.5771 13.0227 12.5771H11.6591C11.2448 12.5771 10.9091 12.2414 10.9091 11.8271Z" fill="#18A77C"/>
<path fill-rule="evenodd" clip-rule="evenodd" d="M2.72711 15.0996C2.72711 14.6854 3.0629 14.3496 3.47711 14.3496H4.84075C5.25496 14.3496 5.59075 14.6854 5.59075 15.0996C5.59075 15.5138 5.25496 15.8496 4.84075 15.8496H3.47711C3.0629 15.8496 2.72711 15.5138 2.72711 15.0996Z" fill="#18A77C"/>
<path fill-rule="evenodd" clip-rule="evenodd" d="M6.81805 15.0996C6.81805 14.6854 7.15384 14.3496 7.56805 14.3496H8.93169C9.3459 14.3496 9.68169 14.6854 9.68169 15.0996C9.68169 15.5138 9.3459 15.8496 8.93169 15.8496H7.56805C7.15384 15.8496 6.81805 15.5138 6.81805 15.0996Z" fill="#18A77C"/>
<path fill-rule="evenodd" clip-rule="evenodd" d="M10.9091 15.0996C10.9091 14.6854 11.2448 14.3496 11.6591 14.3496H13.0227C13.4369 14.3496 13.7727 14.6854 13.7727 15.0996C13.7727 15.5138 13.4369 15.8496 13.0227 15.8496H11.6591C11.2448 15.8496 10.9091 15.5138 10.9091 15.0996Z" fill="#18A77C"/>
</svg>
