<svg width="54" height="13" viewBox="0 0 54 13" fill="none" xmlns="http://www.w3.org/2000/svg">
<path fill-rule="evenodd" clip-rule="evenodd" d="M52.4694 0.847331C53.5364 1.13321 54.1695 2.22988 53.8836 3.29682C53.1067 6.19633 51.662 8.33969 49.6041 9.74466C47.5842 11.1237 45.1737 11.6544 42.6905 11.7318C37.8798 11.8818 32.0795 10.3273 26.672 8.87812L26.4595 8.82117C20.7901 7.30208 15.5426 5.91539 11.3884 6.04492C9.35767 6.10824 7.78147 6.5347 6.60556 7.33751C5.46773 8.11432 4.50764 9.37737 3.9343 11.5171C3.64842 12.5841 2.55175 13.2172 1.48481 12.9314C0.417877 12.6455 -0.215286 11.5488 0.0705982 10.4819C0.847517 7.58231 2.29227 5.43895 4.3502 4.03397C6.37004 2.655 8.78053 2.12429 11.2637 2.04687C16.0744 1.89687 21.8747 3.45134 27.2823 4.90052L27.4948 4.95747C33.1641 6.47656 38.4116 7.86325 42.5658 7.73372C44.5966 7.6704 46.1728 7.24394 47.3487 6.44113C48.4865 5.66432 49.4466 4.40127 50.0199 2.26154C50.3058 1.19461 51.4025 0.561447 52.4694 0.847331Z" fill="#18A77C"/>
</svg>
