<svg width="26" height="31" viewBox="0 0 26 31" fill="none" xmlns="http://www.w3.org/2000/svg">
<path fill-rule="evenodd" clip-rule="evenodd" d="M21.7561 4.24384V6.49984H23.2441V4.24384H25.4401V2.82784H23.2441V0.631836H21.7561V2.82784H19.5601V4.24384H21.7561ZM22.3147 8.83941L17.2377 3.76249C17.1587 3.68407 17.0649 3.62202 16.9618 3.57991C16.8587 3.5378 16.7483 3.51646 16.637 3.5171H3.09852C2.42528 3.5171 1.77961 3.78455 1.30356 4.2606C0.827503 4.73666 0.560059 5.38232 0.560059 6.05556V28.0556C0.560059 28.7288 0.827503 29.3745 1.30356 29.8505C1.77961 30.3266 2.42528 30.594 3.09852 30.594H20.0216C20.6948 30.594 21.3405 30.3266 21.8165 29.8505C22.2926 29.3745 22.56 28.7288 22.56 28.0556V9.44018C22.5607 9.32882 22.5393 9.21843 22.4972 9.11533C22.4551 9.01224 22.3931 8.91847 22.3147 8.83941ZM20.8677 28.0556C20.8677 28.28 20.7786 28.4952 20.6199 28.6539C20.4612 28.8126 20.246 28.9017 20.0216 28.9017H3.09852C2.8741 28.9017 2.65888 28.8126 2.5002 28.6539C2.34151 28.4952 2.25237 28.28 2.25237 28.0556V6.05556C2.25237 5.83115 2.34151 5.61593 2.5002 5.45724C2.65888 5.29856 2.8741 5.20941 3.09852 5.20941H15.7908V8.59402C15.7908 9.04285 15.9691 9.4733 16.2865 9.79067C16.6039 10.108 17.0343 10.2863 17.4831 10.2863H20.8677V28.0556ZM19.1756 20.4401H3.94487V22.1324H19.1756V20.4401ZM3.94487 24.6708H19.1756V26.3631H3.94487V24.6708ZM3.94487 13.6711V17.0557C3.94487 17.2801 4.03402 17.4953 4.1927 17.654C4.35139 17.8127 4.56661 17.9019 4.79102 17.9019H18.3295C18.5539 17.9019 18.7691 17.8127 18.9278 17.654C19.0865 17.4953 19.1756 17.2801 19.1756 17.0557V13.6711C19.1756 13.4467 19.0865 13.2315 18.9278 13.0728C18.7691 12.9141 18.5539 12.8249 18.3295 12.8249H4.79102C4.56661 12.8249 4.35139 12.9141 4.1927 13.0728C4.03402 13.2315 3.94487 13.4467 3.94487 13.6711ZM5.63718 14.5172H17.4833V16.2096H5.63718V14.5172Z" fill="#18A77C"/>
</svg>
