<svg width="180" height="181" viewBox="0 0 180 181" fill="none" xmlns="http://www.w3.org/2000/svg">
<rect y="0.931641" width="180" height="180" rx="16" fill="#F1F3F6"/>
<path fill-rule="evenodd" clip-rule="evenodd" d="M125.193 45.2364V54.3038H131.173V45.2364H140V39.5451H131.173V30.7188H125.193V39.5451H116.366V45.2364H125.193ZM127.438 63.7071L107.032 43.3016C106.714 42.9864 106.337 42.737 105.923 42.5677C105.509 42.3985 105.065 42.3127 104.617 42.3153H50.2028C47.4968 42.3153 44.9017 43.3902 42.9883 45.3036C41.0749 47.217 40 49.8121 40 52.5181V140.942C40 143.648 41.0749 146.243 42.9883 148.156C44.9017 150.07 47.4968 151.145 50.2028 151.145H118.221C120.927 151.145 123.522 150.07 125.436 148.156C127.349 146.243 128.424 143.648 128.424 140.942V66.1217C128.426 65.6741 128.341 65.2304 128.171 64.8161C128.002 64.4017 127.753 64.0249 127.438 63.7071ZM121.622 140.942C121.622 141.844 121.264 142.709 120.626 143.347C119.988 143.985 119.123 144.343 118.221 144.343H50.2028C49.3008 144.343 48.4357 143.985 47.7979 143.347C47.1601 142.709 46.8018 141.844 46.8018 140.942V52.5181C46.8018 51.6161 47.1601 50.751 47.7979 50.1132C48.4357 49.4754 49.3008 49.1171 50.2028 49.1171H101.217V62.7208C101.217 64.5248 101.933 66.2548 103.209 67.5304C104.484 68.806 106.214 69.5226 108.018 69.5226H121.622V140.942ZM114.82 110.334H53.6034V117.136H114.82V110.334ZM53.6034 127.337H114.82V134.139H53.6034V127.337ZM53.6034 83.1275V96.7311C53.6034 97.6331 53.9617 98.4982 54.5995 99.136C55.2373 99.7738 56.1023 100.132 57.0043 100.132H111.419C112.321 100.132 113.186 99.7738 113.824 99.136C114.462 98.4982 114.82 97.6331 114.82 96.7311V83.1275C114.82 82.2255 114.462 81.3605 113.824 80.7227C113.186 80.0849 112.321 79.7266 111.419 79.7266H57.0043C56.1023 79.7266 55.2373 80.0849 54.5995 80.7227C53.9617 81.3605 53.6034 82.2255 53.6034 83.1275ZM60.4052 86.5284H108.018V93.3302H60.4052V86.5284Z" fill="#0E4D7A"/>
</svg>
