<svg width="16" height="12" viewBox="0 0 16 12" fill="none" xmlns="http://www.w3.org/2000/svg">
<path fill-rule="evenodd" clip-rule="evenodd" d="M0.302484 0.289408C-0.108989 0.664546 -0.0994703 1.26433 0.323744 1.62906L5.39807 6.00215L0.323694 10.3759C-0.0994936 10.7406 -0.108967 11.3404 0.302535 11.7155C0.714036 12.0906 1.39069 12.099 1.81387 11.7343L7.67631 6.68131C7.88326 6.50293 8.00001 6.25794 8 6.00207C7.99999 5.7462 7.88322 5.50122 7.67626 5.32286L1.81382 0.270564C1.39061 -0.0941663 0.713958 -0.0857292 0.302484 0.289408Z" fill="#0E4D7A"/>
<path fill-rule="evenodd" clip-rule="evenodd" d="M8.30248 0.289408C7.89101 0.664546 7.90053 1.26433 8.32374 1.62906L13.3981 6.00215L8.32369 10.3759C7.90051 10.7406 7.89103 11.3404 8.30253 11.7155C8.71404 12.0906 9.39069 12.099 9.81387 11.7343L15.6763 6.68131C15.8833 6.50293 16 6.25794 16 6.00207C16 5.7462 15.8832 5.50122 15.6763 5.32286L9.81382 0.270564C9.39061 -0.0941663 8.71396 -0.0857292 8.30248 0.289408Z" fill="#0E4D7A"/>
</svg>
