<svg width="16" height="16" viewBox="0 0 16 16" fill="none" xmlns="http://www.w3.org/2000/svg">
<path d="M0.499196 15.5679C-0.0223554 15.0464 -0.0223552 14.2008 0.499196 13.6792L13.7201 0.458264C14.2417 -0.0632874 15.0873 -0.0632874 15.6088 0.458264C16.1304 0.979816 16.1304 1.82542 15.6088 2.34697L2.3879 15.5679C1.86635 16.0895 1.02075 16.0895 0.499196 15.5679Z" fill="#B91D26"/>
<path d="M0.391164 0.432057C0.912715 -0.0894944 1.75832 -0.0894943 2.27987 0.432057L15.5008 13.653C16.0224 14.1745 16.0224 15.0201 15.5008 15.5417C14.9793 16.0632 14.1337 16.0632 13.6121 15.5417L0.391164 2.32076C-0.130388 1.79921 -0.130388 0.953609 0.391164 0.432057Z" fill="#B91D26"/>
</svg>
