<svg width="30" height="30" viewBox="0 0 30 30" fill="none" xmlns="http://www.w3.org/2000/svg">
<path d="M15 0C6.71576 0 0 6.71576 0 15C0 23.2842 6.71576 30 15 30C23.2842 30 30 23.2846 30 15C30 6.71541 23.2842 0 15 0ZM14.9252 23.3884C14.9252 23.3884 14.2292 23.8511 13.7534 23.8489C13.7111 23.8684 13.686 23.8796 13.686 23.8796L13.6871 23.8489C13.5872 23.8444 13.4866 23.8302 13.3853 23.8048L13.2349 23.7678C12.4041 23.5616 11.9644 22.7379 12.1712 21.9074L13.3278 17.2447L13.8498 15.1387C14.3354 13.1834 12.3099 15.5545 11.8945 14.6538C11.6202 14.0584 13.47 12.8089 14.8214 11.8669C14.8214 11.8669 15.5167 11.4049 15.9928 11.4067C16.0355 11.3869 16.0606 11.376 16.0606 11.376L16.0588 11.4067C16.1594 11.4113 16.26 11.4254 16.3613 11.4505L16.5116 11.4879C17.3425 11.694 17.8486 12.5344 17.6425 13.3648L16.4862 18.0279L15.9632 20.1339C15.4782 22.0892 17.4702 19.7089 17.8853 20.6107C18.1595 21.2054 16.2762 22.4464 14.9252 23.3884ZM17.8567 8.814C17.568 9.97694 16.3913 10.686 15.2287 10.3973C14.0654 10.1086 13.3564 8.93223 13.6451 7.76894C13.9338 6.60565 15.1105 5.89694 16.2731 6.18565C17.4364 6.474 18.1451 7.65071 17.8567 8.814Z" fill="#0E4D7A"/>
</svg>
