<svg width="24" height="22" viewBox="0 0 24 22" fill="none" xmlns="http://www.w3.org/2000/svg">
<path fill-rule="evenodd" clip-rule="evenodd" d="M17.2909 18.073H14.2841V13.3641C14.2841 12.2413 14.264 10.7958 12.7202 10.7958C11.1542 10.7958 10.9145 12.0192 10.9145 13.2824V18.0727H7.90768V8.38937H10.7943V9.71269H10.8347C11.1235 9.21877 11.541 8.81244 12.0425 8.53699C12.5441 8.26154 13.1109 8.12728 13.6827 8.14851C16.7303 8.14851 17.2922 10.1531 17.2922 12.7609L17.2909 18.073ZM4.51496 7.06573C4.16985 7.06579 3.83246 6.96351 3.54548 6.77183C3.2585 6.58015 3.03482 6.30767 2.90269 5.98885C2.77056 5.67004 2.73594 5.3192 2.80321 4.98071C2.87047 4.64222 3.03661 4.33127 3.2806 4.0872C3.52458 3.84313 3.83547 3.67688 4.17393 3.60949C4.5124 3.54211 4.86324 3.5766 5.18211 3.70861C5.50097 3.84062 5.77353 4.06422 5.96531 4.35113C6.1571 4.63805 6.2595 4.97539 6.25956 5.3205C6.2596 5.54965 6.2145 5.77656 6.12685 5.98828C6.0392 6.19999 5.91072 6.39237 5.74872 6.55443C5.58672 6.71649 5.39437 6.84506 5.18268 6.93278C4.97099 7.02051 4.74411 7.06569 4.51496 7.06573ZM6.01838 18.073H3.00841V8.38937H6.01838V18.073ZM18.79 0.783609H1.49747C1.10498 0.77918 0.726772 0.930755 0.445981 1.20503C0.16519 1.4793 0.00479014 1.85383 0 2.24631V19.6105C0.00462619 20.0032 0.164932 20.378 0.445713 20.6526C0.726495 20.9271 1.10479 21.079 1.49747 21.0748H18.79C19.1834 21.0798 19.5628 20.9283 19.8447 20.6538C20.1266 20.3792 20.2879 20.004 20.2934 19.6105V2.24506C20.2878 1.8518 20.1263 1.47684 19.8444 1.20258C19.5625 0.928311 19.1832 0.777169 18.79 0.782356V0.783609ZM22.8202 19.9227C22.8717 19.9232 22.9227 19.9132 22.9702 19.8931C23.0176 19.8731 23.0604 19.8435 23.096 19.8062C23.1315 19.769 23.159 19.7248 23.1768 19.6765C23.1945 19.6281 23.2021 19.5767 23.1992 19.5252C23.1992 19.2434 23.0291 19.1087 22.6802 19.1087H22.1164V20.5845H22.3285V19.9412H22.589L22.595 19.949L22.9993 20.5845H23.2261L22.791 19.9268L22.8202 19.9227ZM22.5737 19.7749H22.3291V19.2759H22.6407C22.8017 19.2759 22.9852 19.3022 22.9852 19.513C22.9852 19.7555 22.7995 19.7749 22.5737 19.7749ZM21.629 18.8633C21.8858 18.6028 22.2353 18.4545 22.6012 18.451H22.6278C22.9936 18.4545 23.3432 18.6028 23.6 18.8633C23.8568 19.1239 24 19.4756 23.9982 19.8414C23.9965 20.2072 23.8499 20.5575 23.5906 20.8156C23.3313 21.0736 22.9803 21.2185 22.6145 21.2185C22.2486 21.2185 21.8977 21.0736 21.6384 20.8156C21.379 20.5575 21.2325 20.2072 21.2307 19.8414C21.2289 19.4756 21.3721 19.1239 21.629 18.8633ZM21.9237 20.8668C22.1255 20.9968 22.3612 21.0641 22.6012 21.0601L22.6015 21.0595H22.6328C22.9476 21.0526 23.2467 20.9211 23.4645 20.6937C23.6823 20.4664 23.8009 20.1618 23.7942 19.847V19.8267C23.7902 19.5867 23.7151 19.3533 23.5785 19.156C23.4419 18.9587 23.2498 18.8064 23.0266 18.7183C22.8034 18.6301 22.559 18.6102 22.3245 18.6609C22.0899 18.7116 21.8757 18.8308 21.7088 19.0033C21.542 19.1758 21.43 19.3939 21.3871 19.63C21.3442 19.8661 21.3723 20.1096 21.4678 20.3298C21.5633 20.55 21.722 20.7369 21.9237 20.8668Z" fill="#18A77C"/>
</svg>
