<svg width="213" height="43" viewBox="0 0 213 43" fill="none" xmlns="http://www.w3.org/2000/svg">
<g clip-path="url(#clip0_1377_721)">
<path d="M187.175 38.574C186.361 38.574 185.744 38.35 185.324 37.902C184.912 37.454 184.707 36.7683 184.707 35.8449V31.566H185.817V35.8175C185.817 36.4483 185.945 36.9146 186.201 37.2163C186.457 37.5089 186.855 37.6552 187.395 37.6552C187.998 37.6552 188.483 37.4586 188.848 37.0655C189.214 36.6723 189.397 36.1466 189.397 35.4883V31.566H190.508V38.4506H189.424V36.9009H189.603C189.411 37.4312 189.1 37.8426 188.67 38.1352C188.249 38.4278 187.751 38.574 187.175 38.574Z" fill="#6A8FAA"/>
<path d="M181.023 38.574C180.346 38.574 179.83 38.382 179.473 37.998C179.117 37.6049 178.938 37.0152 178.938 36.2289V32.43H177.594V31.566H178.938V29.6872L180.049 29.3717V31.566H182.024V32.43H180.049V36.1055C180.049 36.654 180.141 37.0472 180.323 37.2849C180.515 37.5135 180.799 37.6278 181.174 37.6278C181.347 37.6278 181.503 37.614 181.64 37.5866C181.777 37.55 181.901 37.5089 182.01 37.4632V38.3958C181.882 38.4506 181.727 38.4918 181.544 38.5192C181.37 38.5558 181.197 38.574 181.023 38.574Z" fill="#6A8FAA"/>
<path d="M172.764 38.574C172.215 38.574 171.703 38.5009 171.228 38.3546C170.752 38.1992 170.359 37.9843 170.048 37.71L170.432 36.9283C170.771 37.1935 171.136 37.39 171.53 37.518C171.932 37.646 172.348 37.71 172.778 37.71C173.326 37.71 173.738 37.614 174.012 37.422C174.295 37.2209 174.437 36.9466 174.437 36.5992C174.437 36.334 174.346 36.1238 174.163 35.9683C173.989 35.8038 173.701 35.6758 173.299 35.5843L172.023 35.3238C171.438 35.1958 170.999 34.9809 170.707 34.6792C170.414 34.3683 170.268 33.9752 170.268 33.4998C170.268 33.0975 170.373 32.7455 170.583 32.4438C170.794 32.1329 171.1 31.8906 171.502 31.7169C171.904 31.534 172.375 31.4426 172.915 31.4426C173.418 31.4426 173.879 31.5203 174.3 31.6758C174.73 31.822 175.086 32.0369 175.37 32.3203L174.972 33.0883C174.698 32.8232 174.382 32.6266 174.026 32.4986C173.678 32.3615 173.317 32.2929 172.942 32.2929C172.403 32.2929 171.996 32.4026 171.722 32.622C171.456 32.8323 171.324 33.1112 171.324 33.4586C171.324 33.7238 171.406 33.9432 171.571 34.1169C171.744 34.2815 172.01 34.4049 172.366 34.4872L173.642 34.7478C174.263 34.8849 174.725 35.0998 175.027 35.3923C175.338 35.6758 175.493 36.0598 175.493 36.5443C175.493 36.9558 175.379 37.3169 175.15 37.6278C174.922 37.9295 174.602 38.1626 174.19 38.3272C173.788 38.4918 173.312 38.574 172.764 38.574Z" fill="#6A8FAA"/>
<path d="M162.165 38.4506V28.3569H163.276V34.6243H163.303L166.498 31.566H167.897L164.126 35.1592L164.153 34.5969L168.254 38.4506H166.814L163.303 35.214H163.276V38.4506H162.165Z" fill="#6A8FAA"/>
<path d="M156.392 38.574C155.313 38.574 154.463 38.2632 153.841 37.6415C153.219 37.0106 152.908 36.1375 152.908 35.022C152.908 34.2998 153.045 33.6735 153.32 33.1432C153.594 32.6038 153.978 32.1878 154.472 31.8952C154.965 31.5935 155.532 31.4426 156.172 31.4426C156.803 31.4426 157.333 31.5752 157.763 31.8403C158.193 32.1055 158.522 32.4849 158.751 32.9786C158.979 33.4632 159.093 34.0392 159.093 34.7066V35.118H153.759V34.4186H158.367L158.133 34.5969C158.133 33.8655 157.969 33.294 157.64 32.8826C157.311 32.4712 156.821 32.2655 156.172 32.2655C155.487 32.2655 154.952 32.5078 154.568 32.9923C154.184 33.4678 153.992 34.1123 153.992 34.926V35.0495C153.992 35.9089 154.202 36.5626 154.623 37.0106C155.052 37.4495 155.651 37.6689 156.419 37.6689C156.831 37.6689 157.215 37.6095 157.571 37.4906C157.937 37.3626 158.284 37.1569 158.613 36.8735L158.997 37.6552C158.696 37.9478 158.312 38.1763 157.845 38.3409C157.388 38.4963 156.904 38.574 156.392 38.574Z" fill="#6A8FAA"/>
<path d="M149.675 38.574C148.999 38.574 148.482 38.382 148.126 37.998C147.769 37.6049 147.591 37.0152 147.591 36.2289V32.43H146.247V31.566H147.591V29.6872L148.702 29.3718V31.566H150.677V32.43H148.702V36.1055C148.702 36.654 148.793 37.0472 148.976 37.2849C149.168 37.5135 149.451 37.6278 149.826 37.6278C150 37.6278 150.155 37.614 150.293 37.5866C150.43 37.55 150.553 37.5089 150.663 37.4632V38.3958C150.535 38.4506 150.379 38.4918 150.197 38.5192C150.023 38.5558 149.849 38.574 149.675 38.574Z" fill="#6A8FAA"/>
<path d="M137.648 38.4506V31.566H138.759V38.4506H137.648ZM137.511 30.0026V28.7546H138.882V30.0026H137.511Z" fill="#6A8FAA"/>
<path d="M132.103 41.4678C131.975 41.4678 131.815 41.4495 131.623 41.4129C131.431 41.3855 131.271 41.3489 131.143 41.3032V40.3706C131.253 40.4072 131.381 40.4392 131.527 40.4666C131.674 40.5032 131.811 40.5215 131.939 40.5215C132.323 40.5215 132.606 40.398 132.789 40.1512C132.981 39.9135 133.077 39.5203 133.077 38.9718V31.566H134.188V39.0815C134.188 39.8678 134.014 40.462 133.667 40.8643C133.328 41.2666 132.807 41.4678 132.103 41.4678ZM132.954 30.0026V28.7546H134.311V30.0026H132.954Z" fill="#6A8FAA"/>
<path d="M127.741 38.574C127.064 38.574 126.474 38.4278 125.971 38.1352C125.478 37.8426 125.094 37.4266 124.819 36.8872C124.554 36.3478 124.422 35.7078 124.422 34.9672C124.422 34.2175 124.559 33.582 124.833 33.0609C125.107 32.5306 125.491 32.1283 125.985 31.854C126.488 31.5798 127.073 31.4426 127.741 31.4426C128.179 31.4426 128.605 31.5203 129.016 31.6758C129.437 31.8312 129.784 32.0506 130.058 32.334L129.661 33.1295C129.386 32.8643 129.085 32.6678 128.755 32.5398C128.435 32.4118 128.12 32.3478 127.809 32.3478C127.096 32.3478 126.543 32.5718 126.15 33.0198C125.757 33.4678 125.56 34.1215 125.56 34.9809C125.56 35.8312 125.757 36.4895 126.15 36.9558C126.543 37.422 127.096 37.6552 127.809 37.6552C128.111 37.6552 128.422 37.5958 128.742 37.4769C129.071 37.358 129.377 37.1615 129.661 36.8872L130.058 37.6689C129.775 37.9615 129.423 38.1855 129.002 38.3409C128.582 38.4963 128.161 38.574 127.741 38.574Z" fill="#6A8FAA"/>
<path d="M116.591 38.4506V28.3569H117.702V34.6243H117.73L120.925 31.566H122.324L118.553 35.1592L118.58 34.5969L122.681 38.4506H121.241L117.73 35.214H117.702V38.4506H116.591Z" fill="#6A8FAA"/>
<path d="M109.616 38.574C109.004 38.574 108.469 38.4323 108.012 38.1489C107.555 37.8563 107.198 37.4449 106.942 36.9146C106.695 36.3843 106.572 35.7489 106.572 35.0083C106.572 34.2586 106.695 33.6186 106.942 33.0883C107.198 32.558 107.555 32.1512 108.012 31.8678C108.469 31.5843 109.004 31.4426 109.616 31.4426C110.238 31.4426 110.773 31.6026 111.221 31.9226C111.678 32.2335 111.98 32.6586 112.126 33.198H111.961L112.112 31.566H113.182C113.155 31.8312 113.127 32.1009 113.1 32.3752C113.081 32.6403 113.072 32.9009 113.072 33.1569V38.4506H111.961V36.8323H112.112C111.966 37.3718 111.664 37.7969 111.207 38.1078C110.75 38.4186 110.22 38.574 109.616 38.574ZM109.836 37.6689C110.494 37.6689 111.015 37.4449 111.399 36.9969C111.783 36.5398 111.975 35.8769 111.975 35.0083C111.975 34.1306 111.783 33.4678 111.399 33.0198C111.015 32.5626 110.494 32.334 109.836 32.334C109.187 32.334 108.665 32.5626 108.272 33.0198C107.888 33.4678 107.696 34.1306 107.696 35.0083C107.696 35.8769 107.888 36.5398 108.272 36.9969C108.665 37.4449 109.187 37.6689 109.836 37.6689Z" fill="#6A8FAA"/>
<path d="M100.008 38.574C99.4044 38.574 98.8742 38.4323 98.417 38.1489C97.9599 37.8563 97.6033 37.4449 97.3473 36.9146C97.1004 36.3843 96.977 35.7489 96.977 35.0083C96.977 34.2586 97.1004 33.6186 97.3473 33.0883C97.6033 32.558 97.9599 32.1512 98.417 31.8678C98.8742 31.5843 99.4044 31.4426 100.008 31.4426C100.63 31.4426 101.164 31.598 101.612 31.9089C102.07 32.2198 102.376 32.6403 102.531 33.1706H102.367V28.3569H103.478V38.4506H102.38V36.8049H102.531C102.385 37.3535 102.083 37.7878 101.626 38.1078C101.169 38.4186 100.63 38.574 100.008 38.574ZM100.241 37.6689C100.89 37.6689 101.411 37.4449 101.804 36.9969C102.198 36.5398 102.394 35.8769 102.394 35.0083C102.394 34.1306 102.198 33.4678 101.804 33.0198C101.411 32.5626 100.89 32.334 100.241 32.334C99.5919 32.334 99.0707 32.5626 98.6776 33.0198C98.2936 33.4678 98.1016 34.1306 98.1016 35.0083C98.1016 35.8769 98.2936 36.5398 98.6776 36.9969C99.0707 37.4449 99.5919 37.6689 100.241 37.6689Z" fill="#6A8FAA"/>
<path d="M91.6292 38.574C90.5503 38.574 89.7 38.2632 89.0783 37.6415C88.4566 37.0106 88.1458 36.1375 88.1458 35.022C88.1458 34.2998 88.2829 33.6735 88.5572 33.1432C88.8315 32.6038 89.2155 32.1878 89.7092 31.8952C90.2029 31.5935 90.7698 31.4426 91.4098 31.4426C92.0406 31.4426 92.5709 31.5752 93.0006 31.8403C93.4303 32.1055 93.7595 32.4849 93.988 32.9786C94.2166 33.4632 94.3309 34.0392 94.3309 34.7066V35.118H88.996V34.4186H93.604L93.3709 34.5969C93.3709 33.8655 93.2063 33.294 92.8772 32.8826C92.548 32.4712 92.0589 32.2655 91.4098 32.2655C90.724 32.2655 90.1892 32.5078 89.8052 32.9923C89.4212 33.4678 89.2292 34.1123 89.2292 34.926V35.0495C89.2292 35.9089 89.4395 36.5626 89.86 37.0106C90.2898 37.4495 90.8886 37.6689 91.6566 37.6689C92.068 37.6689 92.452 37.6095 92.8086 37.4906C93.1743 37.3626 93.5218 37.1569 93.8509 36.8735L94.2349 37.6552C93.9332 37.9478 93.5492 38.1763 93.0829 38.3409C92.6258 38.4963 92.1412 38.574 91.6292 38.574Z" fill="#6A8FAA"/>
<path d="M82.2703 38.4506V33.2255C82.2703 32.9512 82.2611 32.6723 82.2428 32.3889C82.2337 32.1055 82.2154 31.8312 82.188 31.566H83.2577L83.3948 33.2392L83.2028 33.2529C83.2943 32.8415 83.4543 32.5032 83.6828 32.238C83.9114 31.9729 84.1811 31.7763 84.492 31.6483C84.8028 31.5112 85.1274 31.4426 85.4657 31.4426C85.6028 31.4426 85.7217 31.4472 85.8223 31.4563C85.932 31.4655 86.0326 31.4883 86.124 31.5249L86.1103 32.5123C85.9731 32.4666 85.8451 32.4392 85.7263 32.43C85.6166 32.4118 85.4886 32.4026 85.3423 32.4026C84.94 32.4026 84.588 32.4986 84.2863 32.6906C83.9937 32.8826 83.7697 33.1295 83.6143 33.4312C83.468 33.7329 83.3948 34.0529 83.3948 34.3912V38.4506H82.2703Z" fill="#6A8FAA"/>
<path d="M197.428 21.7363V4.81634H204.82C206.676 4.81634 208.108 5.25634 209.116 6.13634C210.14 7.01634 210.652 8.24034 210.652 9.80834C210.652 10.8483 210.42 11.7363 209.956 12.4723C209.508 13.2083 208.86 13.7763 208.012 14.1763C207.164 14.5603 206.164 14.7523 205.012 14.7523L205.348 14.2963H206.164C206.836 14.2963 207.436 14.4723 207.964 14.8243C208.492 15.1763 208.924 15.7123 209.26 16.4323L211.732 21.7363H208.324L205.828 16.2403C205.604 15.6803 205.26 15.3123 204.796 15.1363C204.348 14.9603 203.804 14.8723 203.164 14.8723H200.524V21.7363H197.428ZM200.524 12.5923H204.316C205.404 12.5923 206.228 12.3683 206.788 11.9203C207.364 11.4563 207.652 10.7843 207.652 9.90434C207.652 9.02434 207.364 8.36034 206.788 7.91234C206.228 7.46434 205.404 7.24034 204.316 7.24034H200.524V12.5923Z" fill="#0E4D7A"/>
<path d="M177.394 21.7363V4.81634H188.794V7.24034H180.37V11.9203H188.242V14.3683H180.37V19.2883H188.794V21.7363H177.394Z" fill="#0E4D7A"/>
<path d="M164.814 21.7363V4.81634H167.91V21.7363H164.814Z" fill="#0E4D7A"/>
<path d="M145.624 21.7363V4.81634H148.72V19.1203H156.688V21.7363H145.624Z" fill="#0E4D7A"/>
<path d="M125.591 21.7363V4.81634H136.991V7.24034H128.567V11.9203H136.439V14.3683H128.567V19.2883H136.991V21.7363H125.591Z" fill="#0E4D7A"/>
<path d="M108.955 21.7363V7.36034H103.363V4.81634H117.643V7.36034H112.051V21.7363H108.955Z" fill="#0E4D7A"/>
<path d="M81.2143 21.7363L88.8703 4.81634H91.4623L99.2143 21.7363H96.0703L94.0063 16.9843L95.2543 17.8243H85.1023L86.3983 16.9843L84.3343 21.7363H81.2143ZM90.1423 8.12834L86.7583 16.1443L86.1343 15.4003H94.1983L93.6943 16.1443L90.2383 8.12834H90.1423Z" fill="#0E4D7A"/>
<path fill-rule="evenodd" clip-rule="evenodd" d="M27.6077 1.58301C18.707 1.58301 9.80609 1.58301 0.905211 1.58301C0.710081 1.58301 0.514951 1.57834 0.319968 1.58301C-0.00558992 1.59059 -0.203355 1.44528 -0.213894 1.17942C-0.225019 0.904853 -0.00295499 0.769399 0.300353 0.745666C0.469865 0.732411 0.641427 0.737839 0.812111 0.737839C18.6869 0.737713 36.5616 0.737839 54.4364 0.737839C54.4851 0.737839 54.5343 0.734052 54.5826 0.73847C54.9685 0.773817 55.5178 0.633439 55.4995 1.1918C55.4826 1.70925 54.9638 1.57872 54.6028 1.57897C47.5553 1.58427 40.5078 1.58288 33.4604 1.58288C31.5094 1.58301 29.5586 1.58301 27.6077 1.58301Z" fill="#0E4D7A"/>
<rect x="-0.214294" y="8.45061" width="31.7143" height="1.71429" rx="0.857143" fill="#18A77C"/>
<path fill-rule="evenodd" clip-rule="evenodd" d="M45.2067 8.88129C48.3519 8.88129 51.4969 8.88291 54.6421 8.87942C55.0492 8.87892 55.5203 8.85934 55.4993 9.32327C55.4813 9.72087 55.0434 9.73645 54.6548 9.73633C48.3646 9.73371 42.0745 9.73433 35.7842 9.73483C35.3794 9.73483 34.9099 9.74269 34.9291 9.27739C34.9464 8.85698 35.3915 8.87929 35.7715 8.87967C38.9164 8.88253 42.0615 8.88129 45.2067 8.88129Z" fill="#0E4D7A"/>
<path fill-rule="evenodd" clip-rule="evenodd" d="M5.18812 17.0235C6.6848 17.0236 8.18133 17.0251 9.67816 17.0224C10.0556 17.0218 10.4946 16.9981 10.4999 17.4414C10.5052 17.8772 10.083 17.8797 9.69437 17.8792C6.65195 17.8752 3.60953 17.8762 0.567258 17.878C0.180381 17.8783 -0.229478 17.8751 -0.213862 17.4216C-0.199424 17.0043 0.197029 17.0221 0.551052 17.0226C2.09664 17.0246 3.64224 17.0235 5.18812 17.0235Z" fill="#0E4D7A"/>
<path fill-rule="evenodd" clip-rule="evenodd" d="M35.1627 17.0239C41.5889 17.0239 48.0151 17.0238 54.4413 17.0243C54.662 17.0244 54.8849 17.0136 55.1023 17.0382C55.3548 17.0668 55.4953 17.238 55.4999 17.4366C55.5043 17.6343 55.3714 17.8147 55.1254 17.8539C54.911 17.888 54.6862 17.8774 54.4661 17.8775C41.5645 17.8784 28.663 17.8783 15.7614 17.8781C15.6142 17.8781 15.4669 17.8816 15.32 17.876C15.0121 17.864 14.7956 17.7439 14.786 17.4591C14.7763 17.1719 14.9837 17.0409 15.2954 17.027C15.4912 17.0183 15.6878 17.0242 15.884 17.0242C22.3102 17.0239 28.7363 17.0239 35.1627 17.0239Z" fill="#0E4D7A"/>
<path fill-rule="evenodd" clip-rule="evenodd" d="M15.2637 25.1673C20.0187 25.1673 24.7737 25.1673 29.5286 25.1673C29.7002 25.1673 29.8719 25.1652 30.0432 25.1689C30.3767 25.1762 30.6408 25.2926 30.6428 25.5961C30.645 25.896 30.4051 26.0304 30.055 26.0216C29.9081 26.018 29.7609 26.0214 29.6138 26.0214C20.0059 26.0214 10.398 26.0214 0.790012 26.0214C0.618512 26.0214 0.446866 26.0226 0.275366 26.0182C-0.0166978 26.0102 -0.193497 25.8547 -0.212487 25.6344C-0.234715 25.378 -0.0505561 25.2046 0.264031 25.1757C0.458054 25.1578 0.655757 25.1676 0.851693 25.1676C5.65574 25.1672 10.4598 25.1672 15.2637 25.1673Z" fill="#0E4D7A"/>
<rect x="32.3571" y="24.7363" width="23.1429" height="1.71428" rx="0.857142" fill="#18A77C"/>
<rect x="-0.214294" y="33.3078" width="19.7143" height="1.71428" rx="0.857141" fill="#18A77C"/>
<path fill-rule="evenodd" clip-rule="evenodd" d="M38.7658 34.5915C33.5318 34.5915 28.2978 34.5916 23.0639 34.5912C22.8674 34.5912 22.6695 34.6002 22.4748 34.5823C22.2174 34.5586 22.0848 34.4037 22.0722 34.1859C22.0596 33.9632 22.1922 33.7999 22.4395 33.7616C22.6549 33.7283 22.8799 33.7375 23.1007 33.7375C33.5687 33.7366 44.0368 33.7366 54.5048 33.7374C54.701 33.7374 54.8982 33.7384 55.0931 33.7549C55.3554 33.7771 55.5045 33.945 55.4999 34.1497C55.4949 34.3742 55.3666 34.5751 55.0574 34.588C54.8611 34.5961 54.6643 34.5915 54.4678 34.5915C49.2337 34.5915 43.9997 34.5915 38.7658 34.5915Z" fill="#0E4D7A"/>
<path fill-rule="evenodd" clip-rule="evenodd" d="M13.0588 42.7363C8.99602 42.7363 4.93325 42.7364 0.870331 42.7359C0.652779 42.7359 0.434936 42.7363 0.217819 42.7261C-0.0353145 42.7143 -0.185481 42.5832 -0.210605 42.3676C-0.239361 42.1209 -0.0990699 41.9521 0.177446 41.907C0.365517 41.8764 0.562156 41.88 0.755165 41.88C8.97743 41.8789 17.1997 41.8789 25.422 41.8803C25.6147 41.8803 25.8131 41.8737 25.9988 41.9102C26.2331 41.9561 26.3716 42.0994 26.3559 42.3278C26.341 42.5445 26.2274 42.6967 25.9714 42.7199C25.7557 42.7392 25.5368 42.7355 25.3196 42.7355C21.2326 42.7366 17.1457 42.7363 13.0588 42.7363Z" fill="#0E4D7A"/>
</g>
<defs>
<clipPath id="clip0_1377_721">
<rect width="212.571" height="42" fill="white" transform="translate(0 0.736328)"/>
</clipPath>
</defs>
</svg>
