<svg width="24" height="19" viewBox="0 0 24 19" fill="none" xmlns="http://www.w3.org/2000/svg">
<path d="M2.25 0.113281C1.00781 0.113281 0 1.12109 0 2.36328C0 3.07109 0.332813 3.73672 0.9 4.16328L11.1 11.8133C11.6344 12.2117 12.3656 12.2117 12.9 11.8133L23.1 4.16328C23.6672 3.73672 24 3.07109 24 2.36328C24 1.12109 22.9922 0.113281 21.75 0.113281H2.25ZM0 5.36328V15.1133C0 16.768 1.34531 18.1133 3 18.1133H21C22.6547 18.1133 24 16.768 24 15.1133V5.36328L13.8 13.0133C12.7312 13.8148 11.2688 13.8148 10.2 13.0133L0 5.36328Z" fill="#18A77C"/>
</svg>
