<svg width="80" height="81" viewBox="0 0 80 81" fill="none" xmlns="http://www.w3.org/2000/svg">
<path d="M25.7645 4.77874C24.5614 1.87262 21.3897 0.325815 18.3586 1.1539L4.60917 4.90374C1.89054 5.65371 0 8.12235 0 10.9347C0 49.5893 31.3424 80.9316 69.9969 80.9316C72.8093 80.9316 75.2779 79.0411 76.0279 76.3225L79.7777 62.5731C80.6058 59.542 79.059 56.3702 76.1529 55.1671L61.1536 48.9174C58.6068 47.855 55.6538 48.5893 53.9195 50.7298L47.6073 58.4326C36.6078 53.2297 27.7019 44.3239 22.499 33.3244L30.2018 27.0278C32.3423 25.2778 33.0767 22.3405 32.0142 19.7937L25.7645 4.79437V4.77874Z" fill="#0E4D7A"/>
</svg>
