<svg width="20" height="21" viewBox="0 0 20 21" fill="none" xmlns="http://www.w3.org/2000/svg">
<path d="M6.44112 1.07506C6.14035 0.348527 5.34742 -0.038175 4.58964 0.168847L1.15229 1.10631C0.472635 1.2938 0 1.91096 0 2.61405C0 12.2777 7.83559 20.1133 17.4992 20.1133C18.2023 20.1133 18.8195 19.6406 19.007 18.961L19.9444 15.5236C20.1515 14.7659 19.7648 13.9729 19.0382 13.6722L15.2884 12.1097C14.6517 11.8441 13.9134 12.0277 13.4799 12.5628L11.9018 14.4885C9.15194 13.1878 6.92548 10.9613 5.62475 8.21146L7.55045 6.63731C8.08558 6.19983 8.26917 5.46549 8.00355 4.8288L6.44112 1.07896V1.07506Z" fill="#18A77C"/>
</svg>
