<svg width="24" height="19" viewBox="0 0 24 19" fill="none" xmlns="http://www.w3.org/2000/svg">
<path d="M0 7.36977C0 3.80839 2.87679 0.923828 6.42857 0.923828H6.85714C7.80536 0.923828 8.57143 1.69197 8.57143 2.64275C8.57143 3.59352 7.80536 4.36167 6.85714 4.36167H6.42857C4.77321 4.36167 3.42857 5.70994 3.42857 7.36977V7.7995H6.85714C8.74821 7.7995 10.2857 9.34116 10.2857 11.2373V14.6752C10.2857 16.5714 8.74821 18.113 6.85714 18.113H3.42857C1.5375 18.113 0 16.5714 0 14.6752V12.9563V11.2373V7.36977ZM13.7143 7.36977C13.7143 3.80839 16.5911 0.923828 20.1429 0.923828H20.5714C21.5196 0.923828 22.2857 1.69197 22.2857 2.64275C22.2857 3.59352 21.5196 4.36167 20.5714 4.36167H20.1429C18.4875 4.36167 17.1429 5.70994 17.1429 7.36977V7.7995H20.5714C22.4625 7.7995 24 9.34116 24 11.2373V14.6752C24 16.5714 22.4625 18.113 20.5714 18.113H17.1429C15.2518 18.113 13.7143 16.5714 13.7143 14.6752V12.9563V11.2373V7.36977Z" fill="#0E4D7A"/>
</svg>
