<svg width="20" height="20" viewBox="0 0 20 20" fill="none" xmlns="http://www.w3.org/2000/svg">
<path d="M16.2508 8.12625C16.2508 9.91896 15.6687 11.575 14.6882 12.9185L19.6338 17.867C20.1221 18.3552 20.1221 19.1481 19.6338 19.6363C19.1455 20.1245 18.3525 20.1245 17.8642 19.6363L12.9186 14.6878C11.5748 15.672 9.91845 16.2501 8.1254 16.2501C3.6369 16.2501 0 12.6139 0 8.12625C0 3.63863 3.6369 0.00244141 8.1254 0.00244141C12.6139 0.00244141 16.2508 3.63863 16.2508 8.12625ZM8.1254 13.7504C8.86412 13.7504 9.59561 13.605 10.2781 13.3223C10.9606 13.0397 11.5807 12.6254 12.1031 12.1031C12.6254 11.5809 13.0398 10.9609 13.3225 10.2785C13.6052 9.59617 13.7507 8.86483 13.7507 8.12625C13.7507 7.38767 13.6052 6.65633 13.3225 5.97397C13.0398 5.29162 12.6254 4.67161 12.1031 4.14936C11.5807 3.6271 10.9606 3.21283 10.2781 2.93019C9.59561 2.64755 8.86412 2.50208 8.1254 2.50208C7.38668 2.50208 6.65519 2.64755 5.9727 2.93019C5.29021 3.21283 4.67008 3.6271 4.14773 4.14936C3.62537 4.67161 3.21102 5.29162 2.92832 5.97397C2.64562 6.65633 2.50012 7.38767 2.50012 8.12625C2.50012 8.86483 2.64562 9.59617 2.92832 10.2785C3.21102 10.9609 3.62537 11.5809 4.14773 12.1031C4.67008 12.6254 5.29021 13.0397 5.9727 13.3223C6.65519 13.605 7.38668 13.7504 8.1254 13.7504Z" fill="#7A8790"/>
</svg>
