<svg width="31" height="29" viewBox="0 0 31 29" fill="none" xmlns="http://www.w3.org/2000/svg">
<path d="M13.6195 1.82435C14.2182 -0.018273 16.825 -0.018272 17.4237 1.82435L19.5628 8.40794C19.8306 9.23199 20.5985 9.78991 21.4649 9.78991H28.3873C30.3248 9.78991 31.1303 12.2691 29.5629 13.4079L23.9626 17.4768C23.2616 17.9861 22.9683 18.8888 23.236 19.7129L25.3752 26.2965C25.9739 28.1391 23.8649 29.6714 22.2975 28.5326L16.6971 24.4637C15.9962 23.9544 15.047 23.9544 14.346 24.4637L8.74566 28.5326C7.17824 29.6714 5.06928 28.1391 5.66798 26.2965L7.80712 19.7129C8.07487 18.8888 7.78155 17.9861 7.08058 17.4768L1.48024 13.4079C-0.0871868 12.2691 0.718365 9.78991 2.65581 9.78991H9.57821C10.4447 9.78991 11.2126 9.23199 11.4803 8.40794L13.6195 1.82435Z" fill="#18A77C"/>
</svg>
