<svg width="80" height="70" viewBox="0 0 80 70" fill="none" xmlns="http://www.w3.org/2000/svg">
<path fill-rule="evenodd" clip-rule="evenodd" d="M46.0092 3.9754C43.3385 -0.530206 36.6615 -0.530212 33.9908 3.97539L0.939985 59.7322C-1.73079 64.2378 1.60767 69.8698 6.94921 69.8698H73.0508C78.3923 69.8698 81.7308 64.2378 79.06 59.7322L46.0092 3.9754ZM35.9099 46.7344H44.0592L45.2052 19.8389H34.7321L35.9099 46.7344ZM36.0691 59.5058C36.9179 60.4285 38.2337 60.8899 40.0164 60.8899C41.799 60.8899 43.1148 60.4285 43.9637 59.5058C44.8338 58.5831 45.2689 57.3143 45.2689 55.6995V55.3535C45.2689 53.7387 44.8338 52.47 43.9637 51.5472C43.1148 50.6245 41.799 50.1632 40.0164 50.1632C38.2337 50.1632 36.9179 50.6245 36.0691 51.5472C35.2202 52.47 34.7957 53.7387 34.7957 55.3535V55.6995C34.7957 57.3143 35.2202 58.5831 36.0691 59.5058Z" fill="#0E4D7A"/>
</svg>
