<svg width="280" height="280" viewBox="0 0 280 280" fill="none" xmlns="http://www.w3.org/2000/svg">
<path d="M140 0.442627L165.614 19.9348L196.943 12.5463L212.415 40.7717L244.04 46.7643L246.694 78.8426L273.148 97.1803L262.525 127.565L279.233 155.077L257.17 178.514L261.243 210.443L231.555 222.88L222.29 253.705L190.11 252.991L169.107 277.383L140 263.643L110.892 277.383L89.8897 252.991L57.7097 253.705L48.4442 222.88L18.7561 210.443L22.8295 178.514L0.766602 155.077L17.4746 127.565L6.85175 97.1803L33.3053 78.8426L35.9594 46.7643L67.5845 40.7717L83.0565 12.5463L114.385 19.9348L140 0.442627Z" fill="#18A77C"/>
<path fill-rule="evenodd" clip-rule="evenodd" d="M211.578 69.1724C212.637 68.1067 212.637 66.3759 211.578 65.3101H211.586C210.527 64.2443 208.807 64.2443 207.748 65.3101L187.97 85.2017L179.039 76.2236C177.98 75.1578 176.26 75.1578 175.201 76.2236C174.141 77.2894 174.141 79.0202 175.201 80.086L186.047 90.9995C187.106 92.0653 188.826 92.0653 189.885 90.9995L211.578 69.1724ZM188.649 103.639L164.005 79.0764C163.621 78.697 163.166 78.3968 162.666 78.1931C162.165 77.9893 161.629 77.8861 161.089 77.8892H95.3726C92.1046 77.8892 88.9705 79.1831 86.6598 81.4863C84.349 83.7894 83.0508 86.9132 83.0508 90.1703V196.607C83.0508 199.864 84.349 202.988 86.6598 205.291C88.9705 207.594 92.1046 208.888 95.3726 208.888H177.518C180.786 208.888 183.92 207.594 186.231 205.291C188.541 202.988 189.84 199.864 189.84 196.607V106.545C189.843 106.006 189.739 105.472 189.535 104.974C189.33 104.475 189.029 104.021 188.649 103.639ZM181.625 196.607C181.625 197.693 181.192 198.734 180.422 199.502C179.652 200.269 178.607 200.701 177.518 200.701H95.3726C94.2833 200.701 93.2386 200.269 92.4683 199.502C91.698 198.734 91.2653 197.693 91.2653 196.607V90.1703C91.2653 89.0846 91.698 88.0434 92.4683 87.2756C93.2386 86.5079 94.2833 86.0766 95.3726 86.0766H156.982V102.451C156.982 104.623 157.847 106.705 159.388 108.241C160.928 109.776 163.017 110.639 165.196 110.639H181.625V196.607ZM173.699 158.59H99.1904V168.539H173.699V158.59ZM99.1904 178.763H173.699V188.712H99.1904V178.763ZM99.1904 126.624V144.016C99.1904 145.17 99.6265 146.276 100.403 147.091C101.179 147.907 102.232 148.365 103.33 148.365H169.56C170.658 148.365 171.711 147.907 172.487 147.091C173.263 146.276 173.699 145.17 173.699 144.016V126.624C173.699 125.471 173.263 124.365 172.487 123.549C171.711 122.734 170.658 122.276 169.56 122.276H103.33C102.232 122.276 101.179 122.734 100.403 123.549C99.6265 124.365 99.1904 125.471 99.1904 126.624ZM107.469 130.972H165.421V139.668H107.469V130.972Z" fill="#FBFBFB"/>
</svg>
