<svg width="8" height="9" viewBox="0 0 8 9" fill="none" xmlns="http://www.w3.org/2000/svg">
<path d="M0.768092 8.55566C0.107024 8.55566 -0.244073 7.83295 0.19459 7.37513L3.10443 4.33826C3.19401 4.24477 3.36092 4.30343 3.36092 4.42839C3.36092 4.55336 3.19398 4.61201 3.10442 4.5185L0.437855 1.7347C-0.000173775 1.27741 0.350522 0.555664 1.01074 0.555664C1.2343 0.555664 1.44669 0.646109 1.59216 0.803253L4.11983 3.53387C4.19936 3.61978 4.13342 3.75248 4.0112 3.75248C3.88898 3.75248 3.82303 3.61978 3.90256 3.53387L6.43153 0.801858C6.57617 0.645599 6.78737 0.555664 7.00966 0.555664C7.66501 0.555664 8.01416 1.27115 7.58095 1.72636L4.93205 4.50976C4.85099 4.59494 4.69917 4.54187 4.69917 4.42835C4.69917 4.31484 4.85094 4.26176 4.93202 4.3469L7.80479 7.3635C8.24612 7.82693 7.89066 8.55566 7.22328 8.55566C6.99699 8.55566 6.782 8.46413 6.63472 8.3051L3.90182 5.35391C3.8226 5.26836 3.88826 5.13618 4.00999 5.13618C4.13212 5.13618 4.19764 5.2691 4.11762 5.3545L1.34718 8.31103C1.20157 8.46641 0.990299 8.55566 0.768092 8.55566Z" fill="#18A77C"/>
</svg>
