<svg width="74" height="56" viewBox="0 0 74 56" fill="none" xmlns="http://www.w3.org/2000/svg">
<path fill-rule="evenodd" clip-rule="evenodd" d="M36.365 1.22854C24.6409 1.22854 12.9166 1.22854 1.19236 1.22854C0.935335 1.22854 0.678309 1.22238 0.421476 1.22854C-0.00735059 1.23851 -0.267847 1.04712 -0.28173 0.696929C-0.296384 0.335263 -0.00387985 0.156842 0.395638 0.125581C0.618921 0.108121 0.844903 0.115271 1.06973 0.115271C24.6145 0.115105 48.1591 0.115271 71.7038 0.115271C71.768 0.115271 71.8328 0.110283 71.8964 0.116103C72.4047 0.162662 73.1284 -0.0222448 73.1043 0.713225C73.0819 1.39482 72.3985 1.22288 71.923 1.22321C62.64 1.2302 53.357 1.22837 44.0742 1.22837C41.5043 1.22854 38.9347 1.22854 36.365 1.22854Z" fill="#FBFBFB"/>
<rect x="-0.282257" y="10.2744" width="41.7742" height="2.25807" rx="1.12903" fill="#FBFBFB"/>
<path fill-rule="evenodd" clip-rule="evenodd" d="M59.5465 10.8416C63.6893 10.8416 67.832 10.8438 71.9749 10.8392C72.511 10.8385 73.1316 10.8127 73.1039 11.4238C73.0802 11.9475 72.5034 11.9681 71.9916 11.9679C63.7061 11.9644 55.4207 11.9653 47.1351 11.9659C46.6019 11.9659 45.9835 11.9763 46.0088 11.3634C46.0316 10.8096 46.6179 10.839 47.1184 10.8395C51.2609 10.8433 55.4036 10.8416 59.5465 10.8416Z" fill="#FBFBFB"/>
<path fill-rule="evenodd" clip-rule="evenodd" d="M6.83383 21.5663C8.80526 21.5665 10.7765 21.5685 12.7481 21.565C13.2453 21.5641 13.8236 21.5329 13.8306 22.1169C13.8376 22.6909 13.2814 22.6941 12.7695 22.6935C8.76199 22.6882 4.7545 22.6896 0.747207 22.6919C0.237611 22.6923 -0.302257 22.6881 -0.281687 22.0907C-0.262669 21.5411 0.25954 21.5645 0.725861 21.5651C2.76172 21.5678 4.79758 21.5663 6.83383 21.5663Z" fill="#FBFBFB"/>
<path fill-rule="evenodd" clip-rule="evenodd" d="M46.3164 21.5669C54.7811 21.5669 63.2456 21.5668 71.7104 21.5674C72.001 21.5676 72.2947 21.5533 72.581 21.5858C72.9135 21.6234 73.0987 21.8489 73.1047 22.1105C73.1105 22.371 72.9354 22.6085 72.6115 22.6602C72.329 22.7051 72.033 22.6911 71.7429 22.6913C54.749 22.6924 37.755 22.6923 20.761 22.6921C20.5672 22.6921 20.3731 22.6966 20.1796 22.6892C19.774 22.6734 19.4888 22.5152 19.4762 22.1401C19.4634 21.7618 19.7366 21.5893 20.1472 21.571C20.4051 21.5595 20.6641 21.5673 20.9225 21.5673C29.387 21.5669 37.8515 21.5669 46.3164 21.5669Z" fill="#FBFBFB"/>
<path fill-rule="evenodd" clip-rule="evenodd" d="M20.1054 32.2942C26.3687 32.2942 32.6321 32.2942 38.8952 32.2942C39.1213 32.2942 39.3474 32.2914 39.5731 32.2963C40.0123 32.3058 40.3602 32.4592 40.3629 32.859C40.3658 33.254 40.0497 33.431 39.5886 33.4195C39.3951 33.4148 39.2012 33.4192 39.0075 33.4192C26.3519 33.4192 13.6962 33.4192 1.04062 33.4192C0.81472 33.4192 0.588626 33.4208 0.362726 33.4149C-0.0219819 33.4044 -0.254862 33.1996 -0.279876 32.9095C-0.309156 32.5717 -0.0665802 32.3433 0.347796 32.3052C0.603363 32.2817 0.863778 32.2945 1.12187 32.2945C7.44977 32.294 13.7777 32.294 20.1054 32.2942Z" fill="#FBFBFB"/>
<rect x="42.621" y="31.7266" width="30.4839" height="2.25806" rx="1.12903" fill="#FBFBFB"/>
<rect x="-0.282257" y="43.0166" width="25.9677" height="2.25806" rx="1.12903" fill="#FBFBFB"/>
<path fill-rule="evenodd" clip-rule="evenodd" d="M51.0626 44.7075C44.1683 44.7075 37.274 44.7077 30.3799 44.7072C30.121 44.7072 29.8604 44.7189 29.6039 44.6954C29.2649 44.6642 29.0902 44.4601 29.0737 44.1732C29.057 43.8799 29.2317 43.6648 29.5574 43.6143C29.8412 43.5705 30.1376 43.5826 30.4283 43.5826C44.2169 43.5814 58.0054 43.5814 71.794 43.5824C72.0525 43.5824 72.3121 43.5838 72.5689 43.6055C72.9144 43.6347 73.1107 43.8559 73.1047 44.1255C73.0981 44.4213 72.9292 44.6859 72.5218 44.7028C72.2633 44.7135 72.0041 44.7075 71.7452 44.7075C64.8509 44.7075 57.9566 44.7075 51.0626 44.7075Z" fill="#FBFBFB"/>
<path fill-rule="evenodd" clip-rule="evenodd" d="M17.2011 55.4356C11.8496 55.4356 6.49811 55.4358 1.14642 55.4351C0.859856 55.4351 0.572912 55.4356 0.286925 55.4221C-0.0465039 55.4066 -0.244304 55.234 -0.277398 54.95C-0.315275 54.6251 -0.130483 54.4027 0.233745 54.3433C0.481473 54.303 0.740487 54.3077 0.994719 54.3077C11.8251 54.3062 22.6555 54.3062 33.4859 54.3081C33.7398 54.3081 34.0011 54.2995 34.2458 54.3475C34.5543 54.4079 34.7368 54.5968 34.7162 54.8976C34.6965 55.183 34.5469 55.3835 34.2096 55.4141C33.9255 55.4395 33.6372 55.4346 33.3511 55.4346C27.9676 55.436 22.5844 55.4356 17.2011 55.4356Z" fill="#FBFBFB"/>
</svg>
