<svg width="173" height="49" viewBox="0 0 173 49" fill="none" xmlns="http://www.w3.org/2000/svg">
<path d="M140.548 44.9536C139.476 44.9536 138.663 44.6586 138.109 44.0685C137.567 43.4784 137.296 42.5751 137.296 41.3588V35.7227H138.759V41.3227C138.759 42.1536 138.928 42.7678 139.265 43.1652C139.602 43.5506 140.126 43.7433 140.837 43.7433C141.632 43.7433 142.27 43.4844 142.752 42.9665C143.233 42.4487 143.474 41.7562 143.474 40.8891V35.7227H144.938V44.791H143.51V42.7498H143.745C143.492 43.4482 143.083 43.9902 142.517 44.3756C141.963 44.7609 141.307 44.9536 140.548 44.9536Z" fill="#FBFBFB"/>
<path d="M132.444 44.9533C131.553 44.9533 130.872 44.7004 130.403 44.1946C129.933 43.6768 129.698 42.9 129.698 41.8643V36.8604H127.928V35.7224H129.698V33.2475L131.162 32.832V35.7224H133.763V36.8604H131.162V41.7017C131.162 42.4243 131.282 42.9421 131.523 43.2553C131.776 43.5563 132.149 43.7069 132.643 43.7069C132.872 43.7069 133.076 43.6888 133.257 43.6527C133.438 43.6045 133.6 43.5503 133.745 43.4901V44.7185C133.576 44.7907 133.371 44.8449 133.131 44.8811C132.902 44.9292 132.673 44.9533 132.444 44.9533Z" fill="#FBFBFB"/>
<path d="M121.565 44.9531C120.843 44.9531 120.168 44.8568 119.542 44.6641C118.916 44.4594 118.398 44.1763 117.989 43.8151L118.494 42.7854C118.94 43.1346 119.422 43.3936 119.939 43.5622C120.469 43.7308 121.017 43.8151 121.583 43.8151C122.306 43.8151 122.848 43.6886 123.209 43.4357C123.583 43.1708 123.769 42.8095 123.769 42.3518C123.769 42.0026 123.649 41.7256 123.408 41.5209C123.179 41.3041 122.8 41.1355 122.27 41.0151L120.59 40.6718C119.819 40.5032 119.241 40.2202 118.856 39.8228C118.47 39.4133 118.278 38.8955 118.278 38.2692C118.278 37.7394 118.416 37.2757 118.693 36.8783C118.97 36.4688 119.373 36.1497 119.903 35.9209C120.433 35.68 121.053 35.5596 121.764 35.5596C122.426 35.5596 123.035 35.6619 123.589 35.8667C124.155 36.0594 124.624 36.3424 124.998 36.7157L124.474 37.7273C124.112 37.3781 123.697 37.1191 123.227 36.9505C122.77 36.7699 122.294 36.6796 121.8 36.6796C121.09 36.6796 120.554 36.8241 120.192 37.1131C119.843 37.3901 119.669 37.7574 119.669 38.2151C119.669 38.5643 119.777 38.8533 119.994 39.0822C120.223 39.2989 120.572 39.4615 121.041 39.5699L122.721 39.9131C123.54 40.0938 124.149 40.3768 124.546 40.7622C124.955 41.1355 125.16 41.6413 125.16 42.2796C125.16 42.8215 125.01 43.2972 124.709 43.7067C124.407 44.1041 123.986 44.4112 123.444 44.628C122.914 44.8447 122.288 44.9531 121.565 44.9531Z" fill="#FBFBFB"/>
<path d="M107.604 44.7906V31.4951H109.067V39.7506H109.103L113.312 35.7222H115.155L110.187 40.4551L110.223 39.7145L115.625 44.7906H113.728L109.103 40.5274H109.067V44.7906H107.604Z" fill="#FBFBFB"/>
<path d="M99.9998 44.9531C98.5788 44.9531 97.4588 44.5437 96.6398 43.7247C95.8209 42.8938 95.4114 41.7437 95.4114 40.2744C95.4114 39.323 95.5921 38.4981 95.9534 37.7996C96.3147 37.089 96.8205 36.5411 97.4708 36.1557C98.1211 35.7583 98.8678 35.5596 99.7108 35.5596C100.542 35.5596 101.24 35.7342 101.806 36.0834C102.372 36.4327 102.806 36.9325 103.107 37.5828C103.408 38.2211 103.559 38.9798 103.559 39.8589V40.4009H96.5314V39.4796H102.601L102.294 39.7144C102.294 38.751 102.077 37.9983 101.644 37.4563C101.21 36.9144 100.566 36.6434 99.7108 36.6434C98.8076 36.6434 98.1031 36.9626 97.5973 37.6009C97.0914 38.2271 96.8385 39.0761 96.8385 40.148V40.3105C96.8385 41.4426 97.1155 42.3037 97.6695 42.8938C98.2355 43.4718 99.0243 43.7609 100.036 43.7609C100.578 43.7609 101.084 43.6826 101.553 43.526C102.035 43.3574 102.493 43.0865 102.926 42.7131L103.432 43.7428C103.035 44.1282 102.529 44.4292 101.915 44.646C101.313 44.8508 100.674 44.9531 99.9998 44.9531Z" fill="#FBFBFB"/>
<path d="M91.1532 44.9533C90.262 44.9533 89.5815 44.7004 89.1119 44.1946C88.6422 43.6768 88.4073 42.9 88.4073 41.8643V36.8604H86.637V35.7224H88.4073V33.2475L89.8706 32.832V35.7224H92.4719V36.8604H89.8706V41.7017C89.8706 42.4243 89.991 42.9421 90.2319 43.2553C90.4848 43.5563 90.8581 43.7069 91.3519 43.7069C91.5807 43.7069 91.7854 43.6888 91.9661 43.6527C92.1467 43.6045 92.3093 43.5503 92.4538 43.4901V44.7185C92.2852 44.7907 92.0805 44.8449 91.8396 44.8811C91.6108 44.9292 91.382 44.9533 91.1532 44.9533Z" fill="#FBFBFB"/>
<path d="M75.3102 44.7902V35.7218H76.7734V44.7902H75.3102ZM75.1295 33.6624V32.0186H76.936V33.6624H75.1295Z" fill="#FBFBFB"/>
<path d="M68.007 48.7644C67.8384 48.7644 67.6277 48.7403 67.3747 48.6921C67.1218 48.656 66.9111 48.6078 66.7425 48.5476V47.3192C66.887 47.3674 67.0556 47.4095 67.2483 47.4457C67.441 47.4938 67.6216 47.5179 67.7902 47.5179C68.296 47.5179 68.6694 47.3553 68.9102 47.0302C69.1631 46.717 69.2896 46.1992 69.2896 45.4766V35.7218H70.7528V45.6211C70.7528 46.6568 70.524 47.4396 70.0664 47.9695C69.6208 48.4994 68.9343 48.7644 68.007 48.7644ZM69.127 33.6624V32.0186H70.9154V33.6624H69.127Z" fill="#FBFBFB"/>
<path d="M62.2603 44.9531C61.3692 44.9531 60.5924 44.7604 59.93 44.3751C59.2797 43.9897 58.7739 43.4417 58.4126 42.7312C58.0634 42.0206 57.8887 41.1776 57.8887 40.2022C57.8887 39.2146 58.0694 38.3776 58.4307 37.6912C58.792 36.9927 59.2978 36.4628 59.9481 36.1015C60.6105 35.7402 61.3812 35.5596 62.2603 35.5596C62.8384 35.5596 63.3984 35.6619 63.9403 35.8667C64.4943 36.0714 64.952 36.3604 65.3132 36.7338L64.7894 37.7815C64.4281 37.4323 64.0307 37.1733 63.5971 37.0047C63.1756 36.8361 62.7601 36.7518 62.3507 36.7518C61.4113 36.7518 60.6827 37.0469 60.1649 37.637C59.647 38.2271 59.3881 39.0882 59.3881 40.2202C59.3881 41.3402 59.647 42.2073 60.1649 42.8215C60.6827 43.4357 61.4113 43.7428 62.3507 43.7428C62.7481 43.7428 63.1575 43.6645 63.5791 43.508C64.0126 43.3514 64.416 43.0925 64.7894 42.7312L65.3132 43.7609C64.9399 44.1462 64.4763 44.4413 63.9223 44.646C63.3683 44.8508 62.8143 44.9531 62.2603 44.9531Z" fill="#FBFBFB"/>
<path d="M47.5748 44.7906V31.4951H49.038V39.7506H49.0741L53.2832 35.7222H55.1257L50.158 40.4551L50.1941 39.7145L55.5954 44.7906H53.6986L49.0741 40.5274H49.038V44.7906H47.5748Z" fill="#FBFBFB"/>
<path d="M38.387 44.9531C37.5801 44.9531 36.8756 44.7665 36.2734 44.3931C35.6713 44.0077 35.2016 43.4658 34.8644 42.7673C34.5392 42.0688 34.3766 41.2318 34.3766 40.2563C34.3766 39.2688 34.5392 38.4258 34.8644 37.7273C35.2016 37.0288 35.6713 36.4929 36.2734 36.1196C36.8756 35.7462 37.5801 35.5596 38.387 35.5596C39.2059 35.5596 39.9104 35.7703 40.5005 36.1918C41.1027 36.6013 41.5001 37.1613 41.6928 37.8718H41.476L41.6747 35.7222H43.0837C43.0476 36.0714 43.0115 36.4267 42.9754 36.788C42.9513 37.1372 42.9392 37.4804 42.9392 37.8176V44.7905H41.476V42.6589H41.6747C41.482 43.3695 41.0846 43.9295 40.4825 44.3389C39.8803 44.7484 39.1818 44.9531 38.387 44.9531ZM38.676 43.7609C39.5431 43.7609 40.2296 43.4658 40.7354 42.8757C41.2412 42.2736 41.4941 41.4004 41.4941 40.2563C41.4941 39.1002 41.2412 38.2271 40.7354 37.637C40.2296 37.0348 39.5431 36.7338 38.676 36.7338C37.8209 36.7338 37.1345 37.0348 36.6166 37.637C36.1108 38.2271 35.8579 39.1002 35.8579 40.2563C35.8579 41.4004 36.1108 42.2736 36.6166 42.8757C37.1345 43.4658 37.8209 43.7609 38.676 43.7609Z" fill="#FBFBFB"/>
<path d="M25.7308 44.9532C24.936 44.9532 24.2375 44.7665 23.6353 44.3932C23.0332 44.0078 22.5635 43.4659 22.2263 42.7674C21.9011 42.0689 21.7386 41.2319 21.7386 40.2564C21.7386 39.2689 21.9011 38.4259 22.2263 37.7274C22.5635 37.0289 23.0332 36.493 23.6353 36.1196C24.2375 35.7463 24.936 35.5596 25.7308 35.5596C26.5497 35.5596 27.2543 35.7644 27.8444 36.1738C28.4465 36.5833 28.85 37.1373 29.0547 37.8358H28.8379V31.4951H30.3011V44.7906H28.856V42.6229H29.0547C28.862 43.3454 28.4646 43.9175 27.8624 44.339C27.2603 44.7485 26.5497 44.9532 25.7308 44.9532ZM26.0379 43.7609C26.893 43.7609 27.5794 43.4659 28.0973 42.8758C28.6151 42.2736 28.874 41.4005 28.874 40.2564C28.874 39.1003 28.6151 38.2272 28.0973 37.6371C27.5794 37.0349 26.893 36.7338 26.0379 36.7338C25.1829 36.7338 24.4964 37.0349 23.9786 37.6371C23.4727 38.2272 23.2198 39.1003 23.2198 40.2564C23.2198 41.4005 23.4727 42.2736 23.9786 42.8758C24.4964 43.4659 25.1829 43.7609 26.0379 43.7609Z" fill="#FBFBFB"/>
<path d="M14.6944 44.9531C13.2733 44.9531 12.1533 44.5437 11.3344 43.7247C10.5155 42.8938 10.106 41.7437 10.106 40.2744C10.106 39.323 10.2866 38.4981 10.6479 37.7996C11.0092 37.089 11.515 36.5411 12.1653 36.1557C12.8157 35.7583 13.5623 35.5596 14.4053 35.5596C15.2363 35.5596 15.9348 35.7342 16.5008 36.0834C17.0668 36.4327 17.5004 36.9325 17.8015 37.5828C18.1025 38.2211 18.2531 38.9798 18.2531 39.8589V40.4009H11.226V39.4796H17.2957L16.9886 39.7144C16.9886 38.751 16.7718 37.9983 16.3382 37.4563C15.9047 36.9144 15.2604 36.6434 14.4053 36.6434C13.5021 36.6434 12.7976 36.9626 12.2918 37.6009C11.786 38.2271 11.5331 39.0761 11.5331 40.148V40.3105C11.5331 41.4426 11.8101 42.3037 12.3641 42.8938C12.9301 43.4718 13.7189 43.7609 14.7305 43.7609C15.2724 43.7609 15.7782 43.6826 16.2479 43.526C16.7296 43.3574 17.1873 43.0865 17.6208 42.7131L18.1266 43.7428C17.7292 44.1282 17.2234 44.4292 16.6092 44.646C16.0071 44.8508 15.3688 44.9531 14.6944 44.9531Z" fill="#FBFBFB"/>
<path d="M2.36675 44.7905V37.908C2.36675 37.5467 2.35471 37.1794 2.33062 36.806C2.31858 36.4327 2.29449 36.0714 2.25836 35.7222H3.66739L3.84804 37.926L3.59514 37.9441C3.71557 37.4022 3.92632 36.9566 4.22739 36.6073C4.52847 36.2581 4.88374 35.9991 5.2932 35.8305C5.70266 35.6499 6.13019 35.5596 6.57578 35.5596C6.75643 35.5596 6.91299 35.5656 7.04546 35.5776C7.18998 35.5897 7.32245 35.6198 7.44288 35.668L7.42481 36.9686C7.24417 36.9084 7.07557 36.8723 6.91901 36.8602C6.77449 36.8361 6.60589 36.8241 6.4132 36.8241C5.88331 36.8241 5.41965 36.9505 5.02223 37.2034C4.63686 37.4563 4.3418 37.7815 4.13707 38.1789C3.94438 38.5763 3.84804 38.9979 3.84804 39.4434V44.7905H2.36675Z" fill="#FBFBFB"/>
<path d="M154.052 22.7744V0.487305H163.789C166.234 0.487305 168.12 1.06687 169.448 2.22601C170.797 3.38515 171.471 4.99741 171.471 7.06279C171.471 8.43268 171.165 9.60236 170.554 10.5718C169.964 11.5413 169.111 12.2895 167.994 12.8163C166.877 13.3221 165.559 13.575 164.042 13.575L164.485 12.9744H165.559C166.445 12.9744 167.235 13.2062 167.93 13.6699C168.626 14.1335 169.195 14.8396 169.638 15.788L172.894 22.7744H168.405L165.117 15.535C164.822 14.7974 164.369 14.3127 163.758 14.0809C163.167 13.849 162.451 13.7331 161.608 13.7331H158.13V22.7744H154.052ZM158.13 10.7299H163.125C164.558 10.7299 165.644 10.4348 166.381 9.84472C167.14 9.23354 167.519 8.34838 167.519 7.18924C167.519 6.0301 167.14 5.15548 166.381 4.56537C165.644 3.97526 164.558 3.68021 163.125 3.68021H158.13V10.7299Z" fill="#FBFBFB"/>
<path d="M127.664 22.7744V0.487305H142.68V3.68021H131.584V9.84472H141.953V13.0692H131.584V19.5499H142.68V22.7744H127.664Z" fill="#FBFBFB"/>
<path d="M111.093 22.7744V0.487305H115.172V22.7744H111.093Z" fill="#FBFBFB"/>
<path d="M85.8167 22.7744V0.487305H89.8947V19.3286H100.39V22.7744H85.8167Z" fill="#FBFBFB"/>
<path d="M59.4285 22.7744V0.487305H74.4447V3.68021H63.3485V9.84472H73.7176V13.0692H63.3485V19.5499H74.4447V22.7744H59.4285Z" fill="#FBFBFB"/>
<path d="M37.5163 22.7744V3.83827H30.1505V0.487305H48.9602V3.83827H41.5944V22.7744H37.5163Z" fill="#FBFBFB"/>
<path d="M0.9758 22.7744L11.0603 0.487305H14.4745L24.6855 22.7744H20.5442L17.8255 16.515L19.4693 17.6215H6.09709L7.80419 16.515L5.08548 22.7744H0.9758ZM12.7358 4.84989L8.27838 15.4086L7.45645 14.4286H18.0784L17.4145 15.4086L12.8623 4.84989H12.7358Z" fill="#FBFBFB"/>
</svg>
